
<svg width="40" height="40" fill="none" xmlns="http://www.w3.org/2000/svg"><rect width="40" height="40" rx="20" fill="#F3FAFF" style="fill:color(display-p3 .9529 .9804 1);fill-opacity:1"/><path d="M26.24 19.73c0 1.755-.63 3.285-1.695 4.41l1.65 2.085-2.175 1.665-1.77-2.22c-.78.315-1.665.48-2.61.48-3.795 0-6.6-2.715-6.6-6.42s2.805-6.42 6.6-6.42c3.795 0 6.6 2.715 6.6 6.42Zm-6.6 3.96c.33 0 .645-.03.945-.105l-1.59-2.01 2.19-1.68 1.68 2.115c.405-.63.645-1.41.645-2.28 0-2.31-1.65-3.96-3.87-3.96s-3.87 1.65-3.87 3.96c0 2.295 1.65 3.96 3.87 3.96Z" fill="#3486E7" style="fill:color(display-p3 .2039 .5255 .9059);fill-opacity:1"/></svg>