<svg xmlns="http://www.w3.org/2000/svg" width="19" height="13" fill="none"><path d="M9.5 10.4c1.08 0 1.997-.38 2.753-1.138.755-.758 1.133-1.679 1.133-2.762s-.377-2.004-1.133-2.763C11.497 2.98 10.579 2.6 9.5 2.6c-1.08 0-1.997.38-2.753 1.137-.756.759-1.133 1.68-1.133 2.763s.377 2.004 1.133 2.762C7.503 10.021 8.42 10.4 9.5 10.4Zm0-1.56a2.245 2.245 0 0 1-1.652-.682 2.26 2.26 0 0 1-.68-1.658c0-.65.227-1.202.68-1.657A2.245 2.245 0 0 1 9.5 4.16c.648 0 1.198.228 1.652.683a2.26 2.26 0 0 1 .68 1.657 2.26 2.26 0 0 1-.68 1.658A2.245 2.245 0 0 1 9.5 8.84Zm0 4.16c-2.102 0-4.016-.589-5.743-1.766C2.03 10.057.777 8.48 0 6.5c.777-1.979 2.03-3.557 3.757-4.734C5.484.589 7.398 0 9.5 0c2.101 0 4.016.589 5.743 1.766C16.971 2.943 18.223 4.52 19 6.5c-.777 1.979-2.03 3.557-3.757 4.734C13.516 12.411 11.601 13 9.5 13Zm0-1.733c1.627 0 3.12-.43 4.48-1.29A8.46 8.46 0 0 0 17.1 6.5a8.46 8.46 0 0 0-3.12-3.478A8.222 8.222 0 0 0 9.5 1.734c-1.627 0-3.12.43-4.48 1.29A8.46 8.46 0 0 0 1.9 6.5a8.46 8.46 0 0 0 3.12 3.477 8.222 8.222 0 0 0 4.48 1.29Z" fill="#808698"/></svg>