
<svg width="20" height="20" fill="none" xmlns="http://www.w3.org/2000/svg"><path d="m13.417 11.084-1.208-1.208c.125-.653-.063-1.264-.563-1.834-.5-.57-1.146-.791-1.938-.666L8.5 6.167c.236-.11.476-.194.719-.25A3.5 3.5 0 0 1 10 5.834c1.042 0 1.927.365 2.656 1.094.73.729 1.094 1.614 1.094 2.656 0 .278-.028.538-.083.781a3.532 3.532 0 0 1-.25.719Zm2.667 2.625-1.209-1.167a9.127 9.127 0 0 0 1.406-1.323c.41-.479.76-1.024 1.053-1.635a8.192 8.192 0 0 0-2.99-3.344C13.045 5.414 11.597 5 10 5c-.403 0-.798.028-1.187.084-.39.056-.771.139-1.146.25L6.375 4.042A9.234 9.234 0 0 1 10 3.334c2.097 0 3.965.58 5.604 1.74 1.64 1.16 2.827 2.663 3.563 4.51-.32.82-.74 1.58-1.26 2.281a9.174 9.174 0 0 1-1.823 1.844Zm.416 5.125L13 15.376a9.997 9.997 0 0 1-1.469.343 9.99 9.99 0 0 1-1.53.115c-2.098 0-3.966-.58-5.605-1.74-1.639-1.16-2.826-2.663-3.563-4.51.292-.736.66-1.42 1.105-2.052a9.595 9.595 0 0 1 1.52-1.698L1.167 3.501l1.166-1.167 15.334 15.333-1.167 1.167ZM4.625 7.001c-.403.36-.77.757-1.104 1.187-.333.43-.618.896-.854 1.396a8.191 8.191 0 0 0 2.99 3.344c1.298.826 2.746 1.24 4.343 1.24.278 0 .549-.018.813-.053.264-.034.534-.073.812-.114l-.75-.792a3.829 3.829 0 0 1-.437.094 2.94 2.94 0 0 1-.438.031c-1.041 0-1.927-.365-2.656-1.094-.73-.729-1.094-1.614-1.094-2.656 0-.153.01-.299.031-.438.021-.138.053-.284.094-.437l-1.75-1.708Z" fill="#8E8E8E" style="fill:color(display-p3 .5569 .5569 .5569);fill-opacity:1"/></svg>