
<svg width="60" height="60" fill="none" xmlns="http://www.w3.org/2000/svg"><path d="M40.521 3H19.506C16.476 3 14 5.477 14 8.506v36.053c0 3.029 2.477 5.506 5.506 5.506h28.988c3.03 0 5.506-2.477 5.506-5.506V16.488L40.521 3.008V3Z" fill="url(#a)"/><path opacity=".5" d="M40.52 10.973c0 3.03 2.477 5.506 5.506 5.506H54L40.52 3v7.973Z" fill="#fff" style="fill:#fff;fill-opacity:1"/><path d="M32.521 9H11.506C8.476 9 6 11.477 6 14.506v36.053c0 3.029 2.477 5.506 5.506 5.506h28.988c3.03 0 5.506-2.477 5.506-5.506V22.488L32.521 9.008V9Z" fill="url(#b)"/><path opacity=".5" d="M32.52 16.973c0 3.03 2.477 5.506 5.506 5.506H46L32.52 9v7.973ZM23.568 37.68c0-2.376.648-3.696 2.4-5.016 1.416-1.08 2.184-1.8 2.184-2.952 0-1.2-.864-1.944-2.376-1.944-1.608 0-2.472 1.128-2.472 2.352h-4.176c0-3.456 2.736-6.048 6.624-6.048 4.152 0 6.504 2.376 6.504 5.64 0 1.776-.864 3.192-2.424 4.392-1.752 1.368-2.304 2.232-2.304 3.576h-3.96Zm2.112 6.816c-1.464 0-2.544-1.056-2.544-2.52s1.08-2.544 2.544-2.544 2.544 1.08 2.544 2.544-1.08 2.52-2.544 2.52Z" fill="#fff" style="fill:#fff;fill-opacity:1"/><defs><linearGradient id="a" x1="34" y1="50.412" x2="34" y2="-4.795" gradientUnits="userSpaceOnUse"><stop stop-color="#EBE6FF" style="stop-color:color(display-p3 .9197 .9 1);stop-opacity:1"/><stop offset="1" stop-color="#8DDCFD" style="stop-color:color(display-p3 .5529 .8627 .9922);stop-opacity:1"/></linearGradient><linearGradient id="b" x1="26" y1="56.412" x2="26" y2="1.205" gradientUnits="userSpaceOnUse"><stop stop-color="#3486E7" style="stop-color:color(display-p3 .2039 .5255 .9059);stop-opacity:1"/><stop offset="1" stop-color="#8DDCFD" style="stop-color:color(display-p3 .5529 .8627 .9922);stop-opacity:1"/></linearGradient></defs></svg>