<svg width="147" height="145" fill="none" xmlns="http://www.w3.org/2000/svg"><path d="M64.686 58.96a6.584 6.584 0 0 0 6.58-6.475 6.594 6.594 0 0 0-6.468-6.714l-17.248-.308-.26-1.36c-.672-3.58-4.123-5.935-7.693-5.256a6.584 6.584 0 0 0-5.25 7.702l1.253 6.636a6.599 6.599 0 0 0 6.356 5.375l22.61.4h.12Z" fill="#FCB1A9" style="fill:color(display-p3 .9882 .6941 .6627);fill-opacity:1"/><path d="M17.498 25.986h92.211V47.08H17.498V25.986Z" fill="#86A8FF" style="fill:color(display-p3 .5255 .6588 1);fill-opacity:1"/><path d="M109.71 47.08c-3.356 0-6.076-4.722-6.076-10.547s2.72-10.547 6.076-10.547c3.356 0 6.076 4.722 6.076 10.547s-2.72 10.547-6.076 10.547Z" fill="#FFFDF1" style="fill:color(display-p3 1 .9915 .9458);fill-opacity:1"/><path d="M109.709 40.1c-1.133 0-2.051-1.596-2.051-3.566 0-1.97.918-3.567 2.051-3.567 1.132 0 2.051 1.597 2.051 3.567 0 1.97-.919 3.567-2.051 3.567Z" fill="#323232" style="fill:color(display-p3 .1958 .1958 .1958);fill-opacity:1"/><path d="M17.497 25.986V47.08L9.42 41.2V30.983l8.078-4.997Z" fill="#FFFDF1" style="fill:color(display-p3 1 .9915 .9458);fill-opacity:1"/><path d="m7.13 32.4 2.29-1.416v10.218l-2.548-1.857c-2.401-1.752-2.268-5.382.259-6.945Z" fill="#323232" style="fill:color(display-p3 .1958 .1958 .1958);fill-opacity:1"/><path opacity=".5" d="M17.499 36.135h86.135v.799H17.499v-.8Z" fill="#fff" style="fill:#fff;fill-opacity:1"/><path d="m83.83 84.657-3.284-30.204a10.03 10.03 0 0 1 7.357-10.813c4.802-1.317 9.772 1.023 11.83 5.565l12.523 27.674a7.418 7.418 0 0 1-4.795 10.217l-14.322 3.917a7.392 7.392 0 0 1-6.118-1.023 7.396 7.396 0 0 1-3.192-5.326v-.007Z" fill="#E66955" style="fill:color(display-p3 .9 .4123 .3338);fill-opacity:1"/><path d="M56.475 59.302c0-8.521 6.902-15.43 15.414-15.43h4.872c8.512 0 15.414 6.909 15.414 15.43v16.756l-35.7.442V59.302Z" fill="#FD8C4D" style="fill:color(display-p3 .9922 .549 .302);fill-opacity:1"/><path d="M41.304 152.199 6.332 86.346H91.81l-34.973 65.853H41.304Z" fill="#89BCF9" style="fill:color(display-p3 .5362 .7372 .975);fill-opacity:1"/><path d="M71.216 51.77c-3.453 0-6.251-2.495-6.251-5.572s2.798-5.571 6.25-5.571c3.453 0 6.252 2.494 6.252 5.571 0 3.077-2.799 5.572-6.251 5.572Z" fill="#DE7468" style="fill:color(display-p3 .8706 .4549 .4078);fill-opacity:1"/><path d="M135.027 153.784H46.82L8.586 81.799H96.8l38.227 71.985Z" fill="#F4F2E2" style="fill:color(display-p3 .9583 .9471 .8865);fill-opacity:1"/><path d="m83.228 27.74 1.477-3.764a3.292 3.292 0 0 1 6.083-.112c.35.806.371 1.703.05 2.523L89.36 30.15a3.31 3.31 0 0 1-4.27 1.871 3.298 3.298 0 0 1-1.862-4.275v-.007Z" fill="#272525" style="fill:color(display-p3 .1529 .1451 .1451);fill-opacity:1"/><path d="M72.28 46.716c7.35 0 13.777-2.438 17.473-9.383l2.884-3.126c5.348-10.028 1.554-22.502-8.47-27.85-10.024-5.353-22.212-.265-27.553 9.763l-.84.91c-1.834 1.984-3.233 4.36-3.906 6.974C49.65 32.63 54.164 39.778 62.62 44.29a20.425 20.425 0 0 0 9.66 2.425Z" fill="#FCB1A9" style="fill:color(display-p3 .9882 .6941 .6627);fill-opacity:1"/><path d="M84.167 6.358c9.905 5.29 13.72 17.533 8.645 27.499l-10.913-8.031-1.057-8.711-16.576-9.419c5.887-3.882 13.356-4.842 19.908-1.345l-.007.007Z" fill="#323232" style="fill:color(display-p3 .1958 .1958 .1958);fill-opacity:1"/><path d="m79.89 26.134 1.476-3.763a3.292 3.292 0 0 1 6.083-.112c.35.805.371 1.702.05 2.522l-1.478 3.764a3.31 3.31 0 0 1-4.27 1.87 3.298 3.298 0 0 1-1.862-4.274v-.007ZM68.05 24.922c-.68-.267-.799-1.59-.263-2.956.535-1.366 1.52-2.256 2.2-1.989.68.267.798 1.59.263 2.956-.535 1.366-1.52 2.256-2.2 1.99ZM57.658 19.592c-.68-.267-.798-1.59-.263-2.956.535-1.366 1.52-2.256 2.2-1.989.68.267.798 1.59.263 2.956-.535 1.366-1.52 2.256-2.2 1.99Z" fill="#323232" style="fill:color(display-p3 .1958 .1958 .1958);fill-opacity:1"/><path d="M60.57 20.156a1.784 1.784 0 1 0-1.023 3.406" stroke="#DE7468" style="stroke:color(display-p3 .8706 .4549 .4078);stroke-opacity:1" stroke-width="1.57" stroke-linecap="round" stroke-linejoin="round"/><path d="M89.843 38.525a6.276 6.276 0 0 1-6.272-6.28 6.276 6.276 0 0 1 6.272-6.278 6.275 6.275 0 0 1 6.272 6.279 6.275 6.275 0 0 1-6.272 6.279Z" fill="#FCB1A9" style="fill:color(display-p3 .9882 .6941 .6627);fill-opacity:1"/><path d="M90.326 35.154a2.931 2.931 0 0 0 2.443-2.895c0-1.619-1.31-2.929-2.927-2.929" stroke="#DE7468" style="stroke:color(display-p3 .8706 .4549 .4078);stroke-opacity:1" stroke-width="1.57" stroke-linecap="round" stroke-linejoin="round"/><path d="m67.535 9.826 1.204 5.116a3.453 3.453 0 0 0 4.15 2.572 3.46 3.46 0 0 0 2.66-3.364V8.894c-.342-5.991-9.064-4.975-8.007.94l-.007-.008Z" fill="#323232" style="fill:color(display-p3 .1958 .1958 .1958);fill-opacity:1"/><path d="M60.191 11.13c-.07 3.231 4.41 4.913 6.377 1.879l2.513-3.953c.812-1.443.805-2.782.308-3.847-3.437 1.128-6.615 3.182-9.198 5.922ZM88.636 12.072c-.242-1.077 1.716-2.433 4.371-3.03 2.656-.596 5.004-.208 5.246.869.24 1.076-1.716 2.432-4.372 3.029-2.656.597-5.004.208-5.245-.868Z" fill="#323232" style="fill:color(display-p3 .1958 .1958 .1958);fill-opacity:1"/><path d="M89.264 12.95c-1.025-.403-1.05-2.786-.054-5.322s2.634-4.264 3.66-3.86c1.025.403 1.05 2.786.054 5.322-.996 2.535-2.635 4.264-3.66 3.86ZM69.817.668a3.452 3.452 0 0 0-3.444 3.448v3.448h6.888V4.116A3.443 3.443 0 0 0 69.817.668Z" fill="#323232" style="fill:color(display-p3 .1958 .1958 .1958);fill-opacity:1"/><path d="M65.09 29.105a6.922 6.922 0 0 1-5.061.407 6.968 6.968 0 0 1-3.955-3.196" stroke="#DE7468" style="stroke:color(display-p3 .8706 .4549 .4078);stroke-opacity:1" stroke-width="1.57" stroke-linecap="round" stroke-linejoin="round"/><path d="M35.417 87.096c0-5.964 4.85-10.82 10.773-10.82l46.004-.217.014 2.565c.028 6.16-4.935 11.184-11.095 11.212l-31.997.154v7.246H35.41V87.103l.007-.007Z" fill="#FCB1A9" style="fill:color(display-p3 .9882 .6941 .6627);fill-opacity:1"/><path d="M35.425 97.23H49.13v16.238H35.425V97.231Z" fill="#fff" style="fill:#fff;fill-opacity:1"/><path d="m101.07 134.953-13.237 3.553-7.042-26.315 13.37-3.062 6.909 25.824Z" fill="gray" style="fill:color(display-p3 .502 .502 .502);fill-opacity:1"/><path d="m87.498 84.195 6.664 24.934-13.37 3.063-6.538-24.45 13.244-3.547Z" fill="#D88680" style="fill:color(display-p3 .8471 .5255 .502);fill-opacity:1"/><path d="M32.857 115.884h15.47a1.141 1.141 0 0 0 0-2.284h-15.47a1.141 1.141 0 0 0 0 2.284ZM84.25 139.796h3.667c.091 0 .175-.007.266-.028l12.306-2.93c.616-.147.994-.763.847-1.38a1.142 1.142 0 0 0-1.379-.848l-12.173 2.901H84.25a1.142 1.142 0 0 0 0 2.285Z" fill="#272525" style="fill:color(display-p3 .1529 .1451 .1451);fill-opacity:1"/><path d="m52.602 76.248 39.607-.19.013 2.566c.029 6.16-4.934 11.184-11.094 11.212l-28.526.133V76.248Z" fill="#375DBE" style="fill:color(display-p3 .2175 .366 .7458);fill-opacity:1"/><path d="M51.58 153.784h88.214l38.108-71.754a.158.158 0 0 0-.14-.231H89.905a.168.168 0 0 0-.14.084L51.58 153.784Z" fill="#F0F9FF" style="fill:color(display-p3 .9412 .9765 1);fill-opacity:1"/><path d="M6.333 86.347 41.305 152.2h15.533l33.67-63.4a4.612 4.612 0 0 1 4.074-2.453h85.799c3.479 0 5.705 3.707 4.074 6.784l-32.081 60.4a9.028 9.028 0 0 1-7.973 4.794H42.103a9.028 9.028 0 0 1-7.973-4.794L.278 89.781c-.826-1.563.3-3.441 2.065-3.441h3.99v.007Z" fill="#E56955" style="fill:color(display-p3 .898 .4118 .3333);fill-opacity:1"/><path opacity=".5" d="M6.333 86.347 41.305 152.2h15.533l33.67-63.4a4.612 4.612 0 0 1 4.074-2.453h85.799c3.479 0 5.705 3.707 4.074 6.784l-32.081 60.4a9.028 9.028 0 0 1-7.973 4.794H42.103a9.028 9.028 0 0 1-7.973-4.794L.278 89.781c-.826-1.563.3-3.441 2.065-3.441h3.99v.007Z" fill="url(#a)"/><path d="M107.35 87.776a6.547 6.547 0 0 0 4.228-1.542 6.602 6.602 0 0 0 .812-9.292L89.1 49.135a6.585 6.585 0 0 0-9.281-.813 6.602 6.602 0 0 0-.812 9.292l23.289 27.807a6.564 6.564 0 0 0 5.047 2.355h.007Z" fill="#FCB1A9" style="fill:color(display-p3 .9882 .6941 .6627);fill-opacity:1"/><path d="M112.76 89.823c.609 0 1.099-.49 1.099-1.1v-5.824c0-.61-.49-1.1-1.099-1.1s-1.099.49-1.099 1.1v5.824c0 .61.49 1.1 1.099 1.1ZM109.505 89.823c.609 0 1.099-.49 1.099-1.1v-5.824c0-.61-.49-1.1-1.099-1.1s-1.099.49-1.099 1.1v5.824c0 .61.49 1.1 1.099 1.1ZM106.245 89.823c.609 0 1.099-.49 1.099-1.1v-5.824c0-.61-.49-1.1-1.099-1.1s-1.099.49-1.099 1.1v5.824c0 .61.49 1.1 1.099 1.1ZM102.989 89.823c.609 0 1.099-.49 1.099-1.1v-5.824c0-.61-.49-1.1-1.099-1.1s-1.099.49-1.099 1.1v5.824c0 .61.49 1.1 1.099 1.1Z" fill="#FCB1A9" style="fill:color(display-p3 .9882 .6941 .6627);fill-opacity:1"/><defs><linearGradient id="a" x1="185.001" y1="122.339" x2="-.002" y2="122.339" gradientUnits="userSpaceOnUse"><stop offset=".57" stop-color="#fff" style="stop-color:white;stop-opacity:1"/><stop offset=".61" stop-color="#FAFAFA" style="stop-color:color(display-p3 .9804 .9804 .9804);stop-opacity:1"/><stop offset=".67" stop-color="#ECECEC" style="stop-color:color(display-p3 .9255 .9255 .9255);stop-opacity:1"/><stop offset=".72" stop-color="#D4D4D4" style="stop-color:color(display-p3 .8314 .8314 .8314);stop-opacity:1"/><stop offset=".78" stop-color="#B4B4B4" style="stop-color:color(display-p3 .7059 .7059 .7059);stop-opacity:1"/><stop offset=".85" stop-color="#8A8A8A" style="stop-color:color(display-p3 .5412 .5412 .5412);stop-opacity:1"/><stop offset=".91" stop-color="#565656" style="stop-color:color(display-p3 .3373 .3373 .3373);stop-opacity:1"/><stop offset=".97" stop-color="#1B1B1B" style="stop-color:color(display-p3 .1059 .1059 .1059);stop-opacity:1"/><stop offset="1" style="stop-color:black;stop-opacity:1"/></linearGradient></defs></svg>
