
<svg width="60" height="60" fill="none" xmlns="http://www.w3.org/2000/svg"><path d="M50.103 46.488c0 2.828-2.854 4.763-5.48 3.717L14.657 38.273V21.11L44.623 9.18c2.627-1.045 5.48.89 5.48 3.717v33.59Z" fill="url(#a)"/><path d="M50.102 22.766a6.898 6.898 0 0 1 0 13.794V22.766Z" fill="url(#b)"/><path d="M20.244 18.877H12.5v21.628h7.744V18.877Z" fill="url(#c)"/><path d="M20.244 18.877H12.5v21.628h7.744V18.877Z" fill="url(#d)"/><path d="M16.789 18.877H11a4 4 0 0 0-4 4v24.954a4 4 0 0 0 4 4h1.789a4 4 0 0 0 4-4V18.877Z" fill="url(#e)"/><path d="M16.789 18.877H11a4 4 0 0 0-4 4v24.954a4 4 0 0 0 4 4h1.789a4 4 0 0 0 4-4V18.877Z" fill="url(#f)"/><defs><linearGradient id="a" x1="37" y1="12" x2="28" y2="42.5" gradientUnits="userSpaceOnUse"><stop offset=".043" stop-color="#FFEF96" style="stop-color:color(display-p3 1 .9381 .5875);stop-opacity:1"/><stop offset="1" stop-color="#FFC446" style="stop-color:color(display-p3 1 .7704 .275);stop-opacity:1"/></linearGradient><linearGradient id="b" x1="57" y1="23" x2="50.5" y2="37.5" gradientUnits="userSpaceOnUse"><stop offset=".039" stop-color="#FFDB71" style="stop-color:color(display-p3 1 .8604 .4417);stop-opacity:1"/><stop offset="1" stop-color="#E7B03C" style="stop-color:color(display-p3 .9042 .6918 .2336);stop-opacity:1"/></linearGradient><linearGradient id="c" x1="9.5" y1="44.5" x2="21.978" y2="41.306" gradientUnits="userSpaceOnUse"><stop stop-color="#F9D865" style="stop-color:color(display-p3 .9765 .8471 .3961);stop-opacity:1"/><stop offset="1" stop-color="#FFAE00" style="stop-color:color(display-p3 1 .6833 0);stop-opacity:1"/></linearGradient><linearGradient id="d" x1="32" y1="10" x2="13.622" y2="51.831" gradientUnits="userSpaceOnUse"><stop stop-color="#FF7963" style="stop-color:color(display-p3 1 .4726 .3875);stop-opacity:1"/><stop offset="1" stop-color="#FFAD9F" style="stop-color:color(display-p3 1 .6771 .625);stop-opacity:1"/></linearGradient><linearGradient id="e" x1="9.5" y1="44.5" x2="21.978" y2="41.306" gradientUnits="userSpaceOnUse"><stop stop-color="#F9D865" style="stop-color:color(display-p3 .9765 .8471 .3961);stop-opacity:1"/><stop offset="1" stop-color="#FFAE00" style="stop-color:color(display-p3 1 .6833 0);stop-opacity:1"/></linearGradient><linearGradient id="f" x1="32" y1="10" x2="13.622" y2="51.831" gradientUnits="userSpaceOnUse"><stop stop-color="#FF7963" style="stop-color:color(display-p3 1 .4726 .3875);stop-opacity:1"/><stop offset="1" stop-color="#FFAD9F" style="stop-color:color(display-p3 1 .6771 .625);stop-opacity:1"/></linearGradient></defs></svg>