
<svg width="36" height="36" fill="none" xmlns="http://www.w3.org/2000/svg"><path d="m11.61 5.576 2.977 3.58c2.287 2.288-2.872 6.36-2.884 6.373-.317.316 1.723 2.87 3.809 4.958 2.086 2.088 4.64 4.127 4.958 3.81.012-.013 4.086-5.172 6.373-2.885l3.58 2.977c2.796 3.208-4.805 13.221-18.216-.191l-.203-.203-.203-.203c-13.413-13.41-3.399-21.013-.19-18.216ZM29.55 16.257c.54-5.094-4.548-10.181-9.641-9.64-.173.01-.33-.102-.356-.26a18.03 18.03 0 0 0-.151-.837c-.034-.157.1-.306.302-.322 2.868-.253 5.999.94 8.146 3.118 2.178 2.146 3.371 5.278 3.118 8.146-.015.203-.163.336-.322.303-.28-.058-.559-.108-.837-.152-.158-.026-.271-.183-.26-.356Z" fill="#fff" style="fill:#fff;fill-opacity:1"/><path d="M26.17 16.606c-.21-3.361-3.256-6.408-6.617-6.616-.168-.014-.301-.147-.301-.306.003-.28 0-.562-.008-.845-.006-.16.153-.288.358-.271 4.043.204 7.786 3.947 7.99 7.99.016.205-.111.363-.27.358-.284-.008-.565-.01-.845-.008-.16 0-.293-.133-.306-.3l-.002-.002ZM22.395 16.407c-.201-1.295-1.33-2.424-2.625-2.626-.164-.028-.292-.163-.29-.322.01-.28.007-.565-.007-.85-.01-.163.177-.289.427-.25 1.926.254 3.664 1.992 3.917 3.916.038.25-.088.44-.25.427a10.7 10.7 0 0 0-.85-.008c-.16.004-.296-.125-.323-.289l.001.002Z" fill="#fff" style="fill:#fff;fill-opacity:1"/></svg>