
<svg width="202" height="214" fill="none" xmlns="http://www.w3.org/2000/svg"><path d="m3.442 44.29.013-.016c.004-.007.007-.01.014-.017.003-.006.006-.01.013-.016.003-.007.007-.01.013-.017a.058.058 0 0 1 .014-.016c.003-.007.006-.01.013-.017.003-.007.007-.01.013-.017.004-.007.007-.01.014-.017a.058.058 0 0 1 .013-.016.057.057 0 0 1 .013-.017c.004-.007.007-.01.014-.017.003-.006.006-.01.013-.016.003-.007.007-.01.013-.017a.058.058 0 0 1 .014-.017c.003-.006.006-.01.013-.016.003-.007.007-.01.013-.017.004-.007.007-.01.014-.017a.058.058 0 0 1 .013-.016.057.057 0 0 1 .014-.017c.003-.007.006-.01.013-.017.003-.006.007-.01.013-.016a.06.06 0 0 1 .014-.017.058.058 0 0 1 .013-.017c.003-.006.007-.01.013-.016.004-.007.007-.01.014-.017.003-.007.006-.01.013-.017a.058.058 0 0 1 .013-.016.057.057 0 0 1 .014-.017c.003-.007.006-.01.013-.017.003-.007.007-.01.013-.017.004-.006.007-.01.014-.016a.058.058 0 0 1 .013-.017c.003-.006.007-.01.013-.017.004-.006.007-.01.014-.016.003-.007.006-.01.013-.017a.058.058 0 0 1 .013-.017.057.057 0 0 1 .014-.016c.003-.007.006-.01.013-.017.003-.007.007-.01.013-.017.004-.006.007-.01.014-.016a.058.058 0 0 1 .013-.017c.003-.007.007-.01.013-.017.004-.006.007-.01.014-.016.003-.007.006-.01.013-.017a.059.059 0 0 1 .013-.017c.004-.006.007-.01.014-.016.003-.007.006-.01.013-.017.003-.007.007-.01.013-.017a.06.06 0 0 1 .014-.016.058.058 0 0 1 .013-.017c.003-.007.007-.01.013-.017.004-.006.007-.01.014-.016.003-.007.006-.01.013-.017a.059.059 0 0 1 .013-.017.057.057 0 0 1 .014-.016c.003-.007.006-.01.013-.017.003-.007.007-.01.014-.017a.06.06 0 0 1 .013-.017.059.059 0 0 1 .013-.016c.004-.007.007-.01.014-.017.003-.007.006-.01.013-.017.003-.006.007-.01.013-.016a.058.058 0 0 1 .014-.017.057.057 0 0 1 .013-.017c.003-.006.007-.01.013-.016.004-.007.007-.01.014-.017a.06.06 0 0 1 .013-.017.059.059 0 0 1 .013-.016c.004-.007.007-.01.014-.017.003-.007.006-.01.013-.017.003-.006.007-.01.013-.016a.058.058 0 0 1 .014-.017c.003-.007.006-.01.013-.017.003-.006.007-.01.013-.016.004-.007.007-.01.014-.017a.06.06 0 0 1 .013-.017.058.058 0 0 1 .013-.016c.004-.007.007-.01.014-.017.003-.007.006-.01.013-.017.003-.006.007-.01.013-.016a.058.058 0 0 1 .014-.017c.003-.007.006-.01.013-.017.003-.006.007-.01.013-.016.004-.007.007-.01.014-.017a.06.06 0 0 1 .013-.017.058.058 0 0 1 .013-.016c.004-.007.007-.01.014-.017.003-.007.006-.01.013-.017.003-.007.007-.01.013-.017a.058.058 0 0 1 .014-.016c.003-.007.006-.01.013-.017.003-.007.007-.01.013-.017.004-.006.007-.01.014-.016a.06.06 0 0 1 .013-.017.058.058 0 0 1 .014-.017c.003-.006.006-.01.013-.016.003-.007.007-.01.013-.017.004-.007.007-.01.014-.017a.059.059 0 0 1 .013-.016c.003-.007.007-.01.013-.017a3.897 3.897 0 0 1 2.092-1.474L52.364 27.89a3.938 3.938 0 0 1 4.633 2.038l31.588 64.05a3.93 3.93 0 0 1-.35 4.062l-.013.016a.06.06 0 0 1-.014.017c-.003.007-.007.01-.013.017a.06.06 0 0 1-.014.016.057.057 0 0 1-.013.017.06.06 0 0 1-.013.017.057.057 0 0 1-.014.016c-.003.007-.006.01-.013.017-.003.007-.007.01-.013.017a.059.059 0 0 1-.014.017.06.06 0 0 1-.013.016c-.003.007-.007.01-.013.017-.004.007-.007.01-.014.017-.003.006-.006.01-.013.016-.003.007-.007.01-.013.017-.004.007-.007.01-.014.017-.003.006-.006.01-.013.016-.003.007-.007.01-.013.017a.059.059 0 0 1-.014.017c-.003.006-.006.01-.013.016-.003.007-.007.01-.013.017-.004.007-.007.01-.014.017a.06.06 0 0 1-.013.016.057.057 0 0 1-.013.017c-.004.007-.007.01-.014.017-.003.006-.006.01-.013.016-.003.007-.007.01-.013.017a.06.06 0 0 1-.014.017.058.058 0 0 1-.013.016.06.06 0 0 1-.013.017.057.057 0 0 1-.014.017c-.003.007-.007.01-.013.016a.06.06 0 0 1-.014.017c-.003.007-.006.01-.013.017-.003.007-.007.01-.013.017a.057.057 0 0 1-.014.016.06.06 0 0 1-.013.017c-.003.007-.007.01-.013.017-.003.006-.007.01-.013.016-.004.007-.007.01-.014.017-.003.007-.007.01-.013.017a.06.06 0 0 1-.014.016.057.057 0 0 1-.013.017c-.003.007-.007.01-.013.017-.004.006-.007.01-.014.016-.003.007-.006.01-.013.017a.06.06 0 0 1-.013.017c-.004.006-.007.01-.014.016a.06.06 0 0 1-.013.017.057.057 0 0 1-.013.017.058.058 0 0 1-.014.016.057.057 0 0 1-.013.017c-.003.007-.007.01-.013.017a.06.06 0 0 1-.014.016c-.003.007-.006.01-.013.017a.058.058 0 0 1-.013.017c-.004.006-.007.01-.014.016-.003.007-.006.01-.013.017a.061.061 0 0 1-.013.017c-.004.006-.007.01-.014.016-.003.007-.006.01-.013.017-.003.007-.007.01-.013.017-.004.007-.007.01-.014.017a.057.057 0 0 1-.013.016c-.003.007-.007.01-.013.017-.004.007-.007.01-.014.017-.003.006-.007.01-.013.016a.061.061 0 0 1-.013.017.057.057 0 0 1-.014.016c-.003.007-.006.01-.013.017a.06.06 0 0 1-.014.017c-.003.007-.006.01-.013.017a.06.06 0 0 1-.013.016.056.056 0 0 1-.013.017c-.004.007-.007.01-.014.017a.057.057 0 0 1-.013.016c-.004.007-.007.01-.014.017a.06.06 0 0 1-.013.017c-.003.006-.007.01-.013.016-.004.007-.007.01-.014.017-.003.007-.006.01-.013.017a.058.058 0 0 1-.013.016.056.056 0 0 1-.014.017c-.003.007-.006.01-.013.017-.003.006-.007.01-.013.016-.004.007-.007.01-.014.017a.06.06 0 0 1-.013.017c-.003.006-.007.01-.013.016-.004.007-.007.01-.014.017-.003.007-.006.01-.013.017-.003.006-.007.01-.013.016a.058.058 0 0 1-.014.017c-.003.007-.006.01-.013.017a.06.06 0 0 1-.013.017.057.057 0 0 1-.014.016.059.059 0 0 1-.013.017.06.06 0 0 1-.013.016c-.004.007-.007.01-.014.017-.003.007-.006.01-.013.017a3.9 3.9 0 0 1-2.105 1.491l-45.497 13.265a3.936 3.936 0 0 1-4.633-2.038L3.092 48.357a3.93 3.93 0 0 1 .35-4.063v-.003Z" fill="#2D2B29" style="fill:color(display-p3 .1765 .1686 .1608);fill-opacity:1"/><g style="mix-blend-mode:multiply"><path d="m.758 47.703.014-.017c.003-.006.006-.01.013-.016.003-.007.007-.01.013-.017a.058.058 0 0 1 .014-.017.057.057 0 0 1 .013-.016c.003-.007.007-.01.013-.017.004-.007.007-.01.014-.017.003-.006.006-.01.013-.017a.058.058 0 0 1 .013-.016c.004-.007.007-.01.014-.017.003-.007.006-.01.013-.017l.013-.016a.058.058 0 0 1 .014-.017.057.057 0 0 1 .013-.017c.004-.006.007-.01.014-.016.003-.007.006-.01.013-.017a.06.06 0 0 1 .013-.017.058.058 0 0 1 .014-.016c.003-.007.006-.01.013-.017.003-.007.007-.01.013-.017.004-.006.007-.01.014-.016a.058.058 0 0 1 .013-.017.057.057 0 0 1 .013-.017c.004-.006.007-.01.014-.016.003-.007.006-.01.013-.017.003-.007.007-.01.013-.017a.058.058 0 0 1 .014-.016c.003-.007.006-.01.013-.017.003-.007.007-.01.013-.017.004-.006.007-.01.014-.016a.058.058 0 0 1 .013-.017.057.057 0 0 1 .013-.017c.004-.006.007-.01.014-.016.003-.007.006-.01.013-.017.003-.007.007-.01.013-.017a.058.058 0 0 1 .014-.016c.003-.007.006-.01.013-.017.003-.007.007-.01.013-.017.004-.007.007-.01.014-.017a.058.058 0 0 1 .013-.016c.003-.007.007-.01.013-.017l.014-.017c.003-.006.006-.01.013-.016a.06.06 0 0 1 .013-.017.058.058 0 0 1 .014-.017c.003-.006.006-.01.013-.016.003-.007.007-.01.013-.017.004-.007.007-.01.014-.017a.058.058 0 0 1 .013-.016.057.057 0 0 1 .014-.017c.003-.007.006-.01.013-.017.003-.006.007-.01.013-.016a.06.06 0 0 1 .014-.017.058.058 0 0 1 .013-.017c.003-.006.007-.01.013-.016.004-.007.007-.01.014-.017.003-.007.006-.01.013-.017a.058.058 0 0 1 .013-.016.057.057 0 0 1 .014-.017c.003-.007.006-.01.013-.017.003-.006.007-.01.013-.016a.06.06 0 0 1 .014-.017.059.059 0 0 1 .013-.017c.003-.006.007-.01.013-.016.004-.007.007-.01.014-.017.003-.007.006-.01.013-.017a.058.058 0 0 1 .013-.016c.004-.007.007-.01.014-.017.003-.007.006-.01.013-.017.003-.007.007-.01.013-.017a.06.06 0 0 1 .014-.016.058.058 0 0 1 .013-.017c.003-.007.007-.01.013-.017.004-.006.007-.01.014-.016.003-.007.006-.01.013-.017a.059.059 0 0 1 .013-.017c.004-.006.007-.01.014-.016.003-.007.006-.01.013-.017.003-.007.007-.01.013-.017a.06.06 0 0 1 .014-.016.058.058 0 0 1 .013-.017c.003-.007.007-.01.013-.017.004-.006.007-.01.014-.016.003-.007.006-.01.013-.017a.058.058 0 0 1 .013-.017c.004-.006.007-.01.014-.016.003-.007.006-.01.013-.017.003-.007.007-.01.014-.017a.06.06 0 0 1 .013-.016.058.058 0 0 1 .013-.017c.004-.007.007-.01.014-.017.003-.006.006-.01.013-.016.003-.007.007-.01.013-.017a.058.058 0 0 1 .014-.017c.003-.006.006-.01.013-.016.003-.007.007-.01.013-.017.004-.007.007-.01.014-.017a.06.06 0 0 1 .013-.017.058.058 0 0 1 .013-.016c.004-.007.007-.01.014-.017a3.897 3.897 0 0 1 2.091-1.474l45.497-13.259a3.938 3.938 0 0 1 4.633 2.038L85.9 97.39a3.93 3.93 0 0 1-.35 4.062c-.003.007-.007.01-.013.017a.058.058 0 0 1-.013.016c-.004.007-.007.01-.014.017-.003.007-.007.01-.013.017a.055.055 0 0 1-.014.016c-.003.007-.006.01-.013.017-.003.007-.007.01-.013.017a.057.057 0 0 1-.013.016c-.004.007-.007.01-.014.017-.003.007-.007.01-.013.017a.058.058 0 0 1-.014.016c-.003.007-.006.01-.013.017-.003.007-.007.01-.013.017a.058.058 0 0 1-.014.016c-.003.007-.006.01-.013.017-.003.007-.007.01-.013.017a.055.055 0 0 1-.014.016c-.003.007-.006.01-.013.017-.003.007-.007.01-.013.017a.057.057 0 0 1-.014.016c-.003.007-.006.01-.013.017-.003.007-.007.01-.013.017a.058.058 0 0 1-.014.016c-.003.007-.006.01-.013.017-.003.007-.007.01-.013.017a.079.079 0 0 1-.014.017.057.057 0 0 1-.013.016c-.003.007-.007.01-.013.017-.004.007-.007.01-.014.017a.058.058 0 0 1-.013.016c-.003.007-.007.01-.013.017-.004.007-.007.01-.014.017a.058.058 0 0 1-.013.016c-.003.007-.007.01-.013.017-.004.007-.007.01-.014.017a.055.055 0 0 1-.013.016c-.003.007-.007.01-.013.017-.004.007-.007.01-.014.017a.057.057 0 0 1-.013.016c-.004.007-.007.01-.014.017-.003.007-.006.01-.013.017a.058.058 0 0 1-.013.016c-.004.007-.007.01-.013.017-.004.007-.007.01-.014.017a.055.055 0 0 1-.013.016c-.003.007-.007.01-.013.017-.004.007-.007.01-.014.017a.057.057 0 0 1-.013.016c-.004.007-.007.01-.014.017-.003.007-.006.01-.013.017a.057.057 0 0 1-.013.016c-.004.007-.007.01-.014.017-.003.007-.006.01-.013.017a.058.058 0 0 1-.013.016c-.004.007-.007.01-.014.017-.003.007-.006.01-.013.017-.003.007-.007.01-.013.017a.057.057 0 0 1-.014.016c-.003.007-.006.01-.013.017-.003.007-.007.01-.013.017a.058.058 0 0 1-.014.016c-.003.007-.006.01-.013.017-.003.007-.007.01-.013.017a.055.055 0 0 1-.014.016c-.003.007-.006.01-.013.017-.003.007-.007.01-.013.017a.057.057 0 0 1-.014.016c-.003.007-.006.01-.013.017-.003.007-.007.01-.013.017a.056.056 0 0 1-.014.016c-.003.007-.006.01-.013.017-.003.007-.007.01-.013.017a.058.058 0 0 1-.014.016c-.003.007-.007.01-.013.017-.003.007-.007.01-.013.017a.055.055 0 0 1-.014.016c-.003.007-.007.01-.013.017-.004.007-.007.01-.014.017a.057.057 0 0 1-.013.016c-.003.007-.007.01-.013.017-.003.007-.007.01-.013.017a.058.058 0 0 1-.014.016c-.003.007-.006.01-.013.017-.004.007-.007.01-.014.017a.058.058 0 0 1-.013.016.049.049 0 0 1-.013.017c-.004.007-.007.01-.014.017-.003.007-.006.01-.013.017a.057.057 0 0 1-.013.016c-.004.007-.007.01-.014.017-.003.007-.006.01-.013.017a.058.058 0 0 1-.013.016c-.004.007-.007.01-.014.017-.003.007-.006.01-.013.017a.055.055 0 0 1-.013.016c-.004.007-.007.01-.014.017-.003.007-.006.01-.013.017a.057.057 0 0 1-.013.016c-.004.007-.007.01-.014.017-.003.007-.006.01-.013.017a3.901 3.901 0 0 1-2.091 1.474l-45.497 13.265a3.936 3.936 0 0 1-4.633-2.038L.408 51.769a3.93 3.93 0 0 1 .35-4.063v-.003Z" fill="#ADB2C7" style="fill:color(display-p3 .6784 .698 .7804);fill-opacity:1"/></g><path d="m4.292 46.755 31.588 64.052a3.937 3.937 0 0 0 4.633 2.038L86.01 99.579a3.934 3.934 0 0 0 2.428-5.52L56.85 30.01a3.937 3.937 0 0 0-4.633-2.038L6.72 41.231a3.934 3.934 0 0 0-2.428 5.52v.004Z" fill="#8181B6" style="fill:color(display-p3 .5059 .5059 .7137);fill-opacity:1"/><path d="M39.461 111.432c.207-.004.41-.037.61-.094L85.57 98.073a2.367 2.367 0 0 0 1.46-3.316L55.442 30.708a2.379 2.379 0 0 0-2.785-1.227L7.16 42.739a2.367 2.367 0 0 0-1.461 3.316l31.588 64.052a2.378 2.378 0 0 0 2.174 1.321v.004Z" fill="#DEE4FF" style="fill:color(display-p3 .8706 .8941 1);fill-opacity:1"/><path d="m41.914 72.59 2.084 4.465 24.003-6.43-2.081-4.467-24.006 6.431Z" fill="#fff" style="fill:#fff;fill-opacity:1"/><path d="m49.26 88.337 2.081 4.466 24.003-6.434-2.082-4.467-24.002 6.435Z" fill="#85B2E8" style="fill:color(display-p3 .5223 .6991 .9083);fill-opacity:1"/><path d="m53.346 78.279 2.082 4.466 16.204-4.34-2.085-4.466-16.2 4.34Z" fill="#fff" style="fill:#fff;fill-opacity:1"/><path d="m38.617 38.61 5.788 11.91 10.96-2.835c.29.911.49 1.858.574 2.836.604 6.9-4.503 12.498-11.404 12.498-6.902 0-12.986-5.594-13.593-12.498-.487-5.584 2.759-10.31 7.672-11.912h.003Z" fill="#85B2E8" style="fill:color(display-p3 .5223 .6991 .9083);fill-opacity:1"/><path d="M38.62 38.605c1.16-.38 2.414-.583 3.732-.583 5.927 0 11.247 4.126 13.015 9.663l-10.96 2.835-5.788-11.912v-.003Z" fill="#FFEA79" style="fill:color(display-p3 1 .9176 .4745);fill-opacity:1"/><path d="M57.948 50.486c.29.91.49 1.858.574 2.836.604 6.9-4.503 12.498-11.404 12.498" stroke="#FEFEFE" style="stroke:color(display-p3 .9961 .9961 .9961);stroke-opacity:1" stroke-width="1.42" stroke-linecap="round" stroke-linejoin="round"/><path d="m116.145 138.612 78.543-21.044" stroke="#fff" style="stroke:#fff;stroke-opacity:1" stroke-linecap="round" stroke-linejoin="round"/><path d="M111.602 43.88a1.429 1.429 0 0 0 1.188-1.852 29.395 29.395 0 0 1-.641-15.617c3.539-15.377 18.793-25.307 34.29-22.335 12.611 2.419 21.767 12.512 23.612 24.476l-.27 26.845 7.148 26.037-45.344 6.568-4.476-13.132a19.103 19.103 0 0 1-3.682-.377c-9.413-1.905-15.637-10.394-13.906-18.963.17-.84.413-1.648.717-2.425a4.839 4.839 0 0 1 1.364-9.226Z" fill="#FDACA5" style="fill:color(display-p3 .9922 .6745 .6471);fill-opacity:1"/><path d="M127.111 74.877c3.485-.187 5.897-1.104 8.088-3.666l-4.413 14.456-3.675-10.79Z" fill="#D7726A" style="fill:color(display-p3 .8431 .4471 .4157);fill-opacity:1"/><path d="m133.966 97.714 48.152-20.427-9.479-14.79c-4.43-8.842-45.474 17.269-41.044 26.111l2.371 9.11v-.004Z" fill="#E9F5FF" style="fill:color(display-p3 .9137 .9608 1);fill-opacity:1"/><path d="M111.891 10.766a26.352 26.352 0 0 0 7.709 1.861c6.761-7.034 16.861-10.567 27.131-8.489 11.758 2.379 20.453 11.444 22.935 22.435.073.324.143.65.204.98.063.334.123.668.173 1.005l-.27 26.844-24.253 3.4a3.691 3.691 0 0 1-3.279-1.212l-10.45-11.814s-17.452.967-13.142-15.577c-2.355-1.294-4.123-3.032-4.983-4.907a39.304 39.304 0 0 1-7.412-4.046c-5.704-4.166-1.061-12.945 5.634-10.477l.003-.003Z" fill="#2D2B29" style="fill:color(display-p3 .1765 .1686 .1608);fill-opacity:1"/><path d="M153.84 16.362c3.435-.907 6.931-2.955 8.759-6.08a16.12 16.12 0 0 0 1.428-2.982 1.425 1.425 0 0 0-2.439-1.401c-1.131 1.29-2.475 2.411-4.029 2.958-1.424.497-2.929.537-4.573.374a3.673 3.673 0 0 0-4.019 3.295c-.304 2.635 2.398 4.733 4.873 3.84v-.004Z" fill="#2D2B29" style="fill:color(display-p3 .1765 .1686 .1608);fill-opacity:1"/><path d="M159.444 9.345c-3.128-1.915-4.556-4.353-4.683-7.995a1.422 1.422 0 0 0-1.497-1.348 1.433 1.433 0 0 0-1.281.98 16.581 16.581 0 0 0-.731 3.223c-.517 3.666 1.028 7.495 3.222 10.38a3.677 3.677 0 0 0 5.13.837c2.099-1.444 1.992-4.75-.163-6.077h.003Z" fill="#2D2B29" style="fill:color(display-p3 .1765 .1686 .1608);fill-opacity:1"/><path d="m107.461 140.946 20.297 69.24c11.474 28.192 122.891-3.056 111.414-31.248l-27.665-85.13-104.049 47.138h.003Z" fill="#C6E0FC" style="fill:color(display-p3 .7765 .8784 .9882);fill-opacity:1"/><path d="m82.38 162.249-25.544-52.421s1.701-11.474 1.595-18.359l-7.619-4.583-2.268 4.116-4.943-1.931-10.02-11c-3.933 1.26-6.568 3.031-6.811 7.598-3.776 1.244-6.308 3.005-6.595 7.375-5.483 1.734-8.502 4.403-6.117 14.112l20.217 73.279c4.042 14.649 19.796 22.658 34.015 17.291 14.223-5.37 20.754-21.804 14.093-35.47l-.003-.007Z" fill="#FDACA5" style="fill:color(display-p3 .9917 .6755 .6487);fill-opacity:1"/><path d="m47.834 99.198-9.13-37.902c-1.41-5.08-8.719-3.62-8.088 1.61l6.09 38.506a5.675 5.675 0 0 0 6.495 4.72c3.255-.5 5.417-3.739 4.633-6.938v.004Z" fill="#FDACA5" style="fill:color(display-p3 .9917 .6755 .6487);fill-opacity:1"/><path d="M27.573 92.142c-.647-2.639-.897-4.757-.804-6.478M20.974 99.679c-.67-2.722-.911-4.89-.798-6.638" stroke="#A8524B" style="stroke:color(display-p3 .6588 .3216 .2941);stroke-opacity:1" stroke-linecap="round" stroke-linejoin="round"/><path d="m58.43 91.464.197-9.993a2.66 2.66 0 0 0-3.238-2.649 7.143 7.143 0 0 0-5.28 4.9l-3.053 10.08 11.375-2.341v.003Z" fill="#FDACA5" style="fill:color(display-p3 .9917 .6755 .6487);fill-opacity:1"/><path d="M33.036 78.246c.567 3.596 1.167 7.382 1.711 10.827" stroke="#A8524B" style="stroke:color(display-p3 .6588 .3216 .2941);stroke-opacity:1" stroke-linecap="round" stroke-linejoin="round"/><path d="M117.532 150.666a29.175 29.175 0 0 0 12.131-2.868c21.244-10.154 38.819-13.239 59.166-16.815 2.962-.52 6.027-1.057 9.133-1.624 15.927-2.902 26.484-18.162 23.585-34.09-2.901-15.927-18.162-26.484-34.089-23.585-2.925.534-5.897 1.054-8.769 1.558-22.528 3.956-45.82 8.048-74.302 21.657-14.607 6.982-20.788 24.48-13.806 39.086 5.106 10.684 15.84 16.861 26.954 16.675l-.003.006Z" fill="#C6E0FC" style="fill:color(display-p3 .7765 .8784 .9882);fill-opacity:1"/><path d="M49.813 199.33c10.71 5.14 23.932 3.422 33.002-5.297l54.092-51.984c11.671-11.218 12.042-29.773.824-41.445-11.217-11.67-29.773-12.04-41.444-.823l-54.093 51.984c-11.67 11.217-12.04 29.773-.823 41.444a29.301 29.301 0 0 0 8.442 6.121Z" fill="#C6E0FC" style="fill:color(display-p3 .7765 .8784 .9882);fill-opacity:1"/><path d="m117.054 161.127 19.853-19.076c11.671-11.217 12.042-29.773.824-41.444-6.985-7.268-16.811-10.153-26.054-8.589" stroke="#E9F5FF" style="stroke:color(display-p3 .9137 .9608 1);stroke-opacity:1" stroke-width="1.42" stroke-miterlimit="10"/><path d="M116.548 121.368c-1.681 0-1.684-2.612 0-2.612 1.685 0 1.685 2.612 0 2.612Z" fill="#C6E0FC" style="fill:color(display-p3 .7765 .8784 .9882);fill-opacity:1"/><path d="M126.492 55.22c-3.192-.31-5.4-4.475-4.932-9.303.468-4.828 3.435-8.49 6.628-8.18 3.192.309 5.4 4.474 4.932 9.301-.468 4.828-3.436 8.49-6.628 8.181Z" fill="#FDACA5" style="fill:color(display-p3 .9922 .6745 .6471);fill-opacity:1"/><path d="M125.466 52.383c2.161.21 4.173-2.272 4.493-5.544.32-3.272-1.178-6.094-3.342-6.304" stroke="#D7726A" style="stroke:color(display-p3 .8417 .4479 .4138);stroke-opacity:1" stroke-width="1.5" stroke-linecap="round" stroke-linejoin="round"/></svg>