
<svg width="267" height="160" fill="none" xmlns="http://www.w3.org/2000/svg"><path d="M205.222 38.158s22.138 5.502 15.448 30.51c0 0-26.615 1.408-27.059-25.049l11.611-5.46Z" fill="#3F3737" style="fill:color(display-p3 .2458 .2161 .2161);fill-opacity:1"/><path d="M85.661 91.742c-1.188-4.764-5.058-8.632-5.058-8.632L65.565 70.096c-2.642-2.064-1.461-6.69 2.573-5.372-4.744-2.809-1.379-6.889 2.123-4.435-3.68-2.577-2.682-6.302 3.318-4.293l22.492 6.569s9.843-1.552 14.608 3.362c4.758 4.914 5.024 12.713 5.024 12.713l11.004 13.102c12.936-29.553 36.336-35.746 36.336-35.746-1.782 3.055-23.4 65.668-18.793 69.694l-.669 11.776c-6.839 2.618-14.225 4.818-21.188 5.645-21.858 2.584-35.537-46.599-36.725-51.362l-.007-.007Z" fill="#FFB8A2" style="fill:color(display-p3 1 .7213 .6333);fill-opacity:1"/><path d="m77.88 68.894-9.747-4.17M81.096 64.663l-10.84-4.374" stroke="#E68464" style="stroke:color(display-p3 .9 .5176 .3938);stroke-opacity:1" stroke-width=".71" stroke-linecap="round" stroke-linejoin="round"/><path d="M94.42 65.84s-1.1 6.746 5.324 12.391" stroke="#E68464" style="stroke:color(display-p3 .9 .5176 .3938);stroke-opacity:1" stroke-width=".99" stroke-linecap="round" stroke-linejoin="round"/><path d="M110.673 65.928s-3.447-7.723-14.506-12.904a3.657 3.657 0 0 0-4.648 1.38 3.672 3.672 0 0 0-.082 3.766l6.635 10.28 12.608-2.522h-.007Z" fill="#FFB8A2" style="fill:color(display-p3 1 .7213 .6333);fill-opacity:1"/><path d="M163.029 55.996c-1.365 2.344-14.403 39.73-18.321 58.833l-18.015-23.087c12.936-29.554 36.336-35.746 36.336-35.746Z" fill="#96CCE3" style="fill:color(display-p3 .5882 .8 .8902);fill-opacity:1"/><path d="M139.658 92.18c.143-5.147 21.598-33.129 23.379-36.19l5.618-2.495 31.995-1.811c5.57 1.544 11.297 3.663 17.147 6.26l19.387 93.362-95.915-.738 3.57-39.621c-4.082-6.404-5.332-13.41-5.181-18.761v-.007Z" fill="#C6E0FC" style="fill:color(display-p3 .7765 .8784 .9882);fill-opacity:1"/><path d="M157.856 25.097c0 14.578 10.151 26.396 24.711 26.396.833 0 1.645-.041 2.457-.117l-.361 4.43c16.041-5.81 22.656-21.598 22.656-21.598a26.505 26.505 0 0 0 1.611-9.104c0-14.578-11.96-24.243-26.52-24.243-14.56 0-24.561 9.665-24.561 24.236h.007Z" fill="#3F3737" style="fill:color(display-p3 .2458 .2161 .2161);fill-opacity:1"/><path d="M162.655 9.738c13.727 16.574 22.478 16.732 25.339 16.957a6.564 6.564 0 0 1 5.263-2.638 6.598 6.598 0 0 1 3.31 12.302l4.089 15.33c-15.877 13.957-31.264 8.688-31.264 8.688l-.737-6.876s-10.574-1.107-14.519-12.795c-3.946-11.687 8.519-30.96 8.519-30.96v-.008Z" fill="#FFB8A2" style="fill:color(display-p3 1 .7213 .6333);fill-opacity:1"/><path d="M182.771 52.441s-3.399 5.174-7.249 8.879c-3.788-.15-6.137-.95-6.137-.95l-.737-6.876s7.372 1.292 14.123-1.053Z" fill="#E58464" style="fill:color(display-p3 .898 .5176 .3922);fill-opacity:1"/><path d="M171.636 31.258c-.66-.199-.874-1.435-.476-2.762s1.256-2.242 1.917-2.043c.661.198.874 1.435.476 2.762s-1.256 2.241-1.917 2.043ZM158.583 26.988c-.673-.152-.971-1.37-.666-2.722.305-1.351 1.098-2.323 1.771-2.17.673.152.971 1.37.666 2.722-.305 1.35-1.098 2.323-1.771 2.17Z" fill="#272525" style="fill:color(display-p3 .1529 .1451 .1451);fill-opacity:1"/><path d="M161.645 28.46a2.023 2.023 0 0 0-1.762.677 2.052 2.052 0 0 0-.409 1.845 2.023 2.023 0 0 0 1.317 1.354" stroke="#272525" style="stroke:color(display-p3 .1529 .1451 .1451);stroke-opacity:1" stroke-width=".99" stroke-linecap="round" stroke-linejoin="round"/><path d="M175.544 24.132c-.253-.403-1.557-1.825-1.939-1.08a.374.374 0 0 0 .02.308c.362.567.874.984 1.475 1.278.307.143.628-.232.444-.513v.007ZM163.932 16.07c-.512-.103-1.024-.151-1.536-.062a.348.348 0 0 0-.028.676c.505.13 1.024.123 1.536.062.369-.048.383-.609.028-.677Z" fill="#272525" style="fill:color(display-p3 .1529 .1451 .1451);fill-opacity:1"/><path d="M159.426 38.643c-.341 2.892 3.277 7.546 6.478 6.917 3.202-.629 2.116-6.41 1.55-6.917-.567-.505-6.021-3.342-8.028 0Z" fill="#E58464" style="fill:color(display-p3 .898 .5176 .3922);fill-opacity:1"/><path d="M161.897 44.001c1.18 1.121 2.628 1.825 4.007 1.559 2.054-.404 2.341-2.926 2.136-4.812-2 .526-4.758 1.695-6.143 3.26v-.007Z" fill="#E56955" style="fill:color(display-p3 .898 .4118 .3333);fill-opacity:1"/><path d="M194.73 31.248a.858.858 0 0 0 .853-.779c.028-.28 2.403-27.694-17.393-30.462a.86.86 0 0 0-.239 1.702c18.165 2.536 15.946 28.337 15.919 28.603-.041.472.3.889.771.936H194.73Z" fill="#fff" style="fill:#fff;fill-opacity:1"/><path d="M194.73 31.248a.858.858 0 0 0 .853-.779c.028-.28 2.403-27.694-17.393-30.462a.86.86 0 0 0-.239 1.702c18.165 2.536 15.946 28.337 15.919 28.603-.041.472.3.889.771.936H194.73Z" fill="#F0E8DB" style="fill:color(display-p3 .9412 .9098 .8588);fill-opacity:1"/><path d="M168.45 49.771c.969 0 1.809-.73 1.918-1.722a1.937 1.937 0 0 0-1.707-2.146c-2.211-.253-4.573-.69-7.031-1.305a1.938 1.938 0 0 0-.942 3.76 57.988 57.988 0 0 0 7.536 1.4c.076.007.151.013.219.013h.007Z" fill="#272525" style="fill:color(display-p3 .1529 .1451 .1451);fill-opacity:1"/><path d="M172.949 48.957c18.349 0 21.462-13.936 21.496-14.093a.857.857 0 0 0-.662-1.012.851.851 0 0 0-1.01.663c-.13.622-3.386 14.818-24.226 12.466a.859.859 0 0 0-.192 1.709c1.632.185 3.168.274 4.601.274l-.007-.007Z" fill="#fff" style="fill:#fff;fill-opacity:1"/><path d="M172.949 48.957c18.349 0 21.462-13.936 21.496-14.093a.857.857 0 0 0-.662-1.012.851.851 0 0 0-1.01.663c-.13.622-3.386 14.818-24.226 12.466a.859.859 0 0 0-.192 1.709c1.632.185 3.168.274 4.601.274l-.007-.007Z" fill="#000" style="fill:#000;fill-opacity:1"/><path d="M172.949 48.957c18.349 0 21.462-13.936 21.496-14.093a.857.857 0 0 0-.662-1.012.851.851 0 0 0-1.01.663c-.13.622-3.386 14.818-24.226 12.466a.859.859 0 0 0-.192 1.709c1.632.185 3.168.274 4.601.274l-.007-.007Z" stroke="#272525" style="stroke:color(display-p3 .1529 .1451 .1451);stroke-opacity:1" stroke-width=".71" stroke-linecap="round" stroke-linejoin="round"/><path d="M197.523 31.508a3.174 3.174 0 0 0-3.174-3.178c-1.754 0-3.174 3.178-3.174 3.178s1.42 3.178 3.174 3.178a3.174 3.174 0 0 0 3.174-3.178Z" fill="#272525" style="fill:color(display-p3 .1529 .1451 .1451);fill-opacity:1"/><path opacity=".5" d="M4.683 150.623h257.634a4.686 4.686 0 0 1 4.683 4.689 4.686 4.686 0 0 1-4.683 4.688H4.683A4.685 4.685 0 0 1 0 155.312a4.686 4.686 0 0 1 4.683-4.689Z" fill="#26AD9B" style="fill:color(display-p3 .15 .6792 .607);fill-opacity:1"/><path d="M151.48 134.807c.341-.67.73-1.312 1.153-1.927-14.232-14.531 53.238-19.39 50.111-19.978-2.28-28.747-11.577-45.19 15.052-54.965 8.922 3.52 17.441 9.234 21.236 18.413 10.328 23.594 17.858 76.289-19.434 74.218-36.418-2.03-26.008 2.939-50.2.273a8.191 8.191 0 0 0-2.621 2.912c-2.683 4.955-9.98 1.018-8.307-3.862-6.219 3.028-9.12-4.552-5.018-8.775-1.993-1.162-3.317-3.657-1.972-6.302v-.007Z" fill="#FFB8A2" style="fill:color(display-p3 1 .7213 .6333);fill-opacity:1"/><path d="m158.477 149.893 2.041-3.732a10.151 10.151 0 0 1 7.727-5.208l1.632-.191M153.363 140.903c2.13-3.793 6.103-6.493 10.41-7.067M152.525 132.675a11.373 11.373 0 0 1 7.229-5.208" stroke="#E68464" style="stroke:color(display-p3 .9 .5176 .3938);stroke-opacity:1" stroke-width=".71" stroke-linecap="round" stroke-linejoin="round"/><path d="M202.745 112.903c-6.253-11.407-6.116-26.854-6.253-29.328-.867-15.699 7.393-20.428 21.305-25.63 2.054.91 4.123 1.88 6.205 2.905 6.689 3.294 12.082 8.803 15.086 15.631 5.549 12.63 8.075 26.484 8.689 41.104l-45.032-4.682Z" fill="#C6E0FC" style="fill:color(display-p3 .7765 .8784 .9882);fill-opacity:1"/><path d="M202.744 112.902a1566.565 1566.565 0 0 1-2.164-18.228" stroke="#749AC2" style="stroke:color(display-p3 .4543 .6027 .7625);stroke-opacity:1" stroke-width=".99" stroke-linecap="round" stroke-linejoin="round"/><path d="M45.893 150.587h55.476a2.961 2.961 0 0 0-2.962-2.966h-50.2l-2.308 2.966h-.006Z" fill="#9ED6C8" style="fill:color(display-p3 .6196 .8392 .7843);fill-opacity:1"/><path d="M121.357 134.554H78.543a6.18 6.18 0 0 1-5.407-3.184L43.142 80.478c-1.263-2.275 1.802-5.61 4.403-5.61h42.814a6.18 6.18 0 0 1 5.406 3.184l28.575 51.431c1.262 2.276-.383 5.071-2.983 5.071Z" fill="#fff" style="fill:#fff;fill-opacity:1"/><path d="M119.814 136.058H77a6.179 6.179 0 0 1-5.407-3.185l-8.587-15.453-19.987-35.978c-1.263-2.275.382-5.07 2.983-5.07h42.814a6.18 6.18 0 0 1 5.406 3.184l28.575 51.431c1.262 2.276-.383 5.071-2.983 5.071Z" fill="#CFF2E9" style="fill:color(display-p3 .8118 .949 .9137);fill-opacity:1"/><path d="m80.379 136.059 10.642-28.883 7.795 28.883H80.38Z" fill="#9ED6C8" style="fill:color(display-p3 .6196 .8392 .7843);fill-opacity:1"/><path d="m80.379 136.059 10.642-28.883 7.795 28.883H80.38Z" fill="#9ED6C8" style="fill:color(display-p3 .6196 .8392 .7843);fill-opacity:1"/><path d="M59.676 107.176h31.346l-13.783 43.421H45.887l13.789-43.421Zm5.822 33.203c1.816-.328 3.359-1.894 3.59-3.78.233-1.886-.934-3.458-2.675-3.779-1.823.328-3.365 1.893-3.597 3.779-.233 1.886.935 3.458 2.682 3.78Z" fill="#EBFFFA" style="fill:color(display-p3 .9216 1 .9804);fill-opacity:1"/><path d="M65.498 140.378c.219.047.45.068.69.068 2.116 0 4.047-1.722 4.307-3.848.266-2.126-1.242-3.848-3.365-3.848-.24 0-.478.021-.717.068 1.74.322 2.908 1.894 2.676 3.78-.232 1.886-1.775 3.451-3.59 3.78Z" fill="#9ED6C8" style="fill:color(display-p3 .6196 .8392 .7843);fill-opacity:1"/></svg>