
<svg width="14" height="18" fill="none" xmlns="http://www.w3.org/2000/svg"><path d="m1.866 12.452 3.24-3.291-3.24-3.292L3.18 4.536l3.24 3.292 3.24-3.292 1.313 1.333-3.24 3.292 3.24 3.291-1.313 1.333-3.24-3.291-3.24 3.291-1.313-1.333ZM.882 9.09c0-.328.099-.598.297-.81.198-.212.482-.318.851-.318.383 0 .677.106.882.318.205.212.308.482.308.81 0 .328-.1.595-.298.8-.198.198-.488.294-.871.287-.376.007-.667-.09-.872-.287-.198-.205-.297-.472-.297-.8Zm4.286 4.409c.007-.321.11-.584.308-.79.205-.211.492-.317.86-.317.37 0 .657.106.862.318.212.205.315.468.308.789.007.321-.096.588-.308.8-.205.205-.492.307-.861.307-.37 0-.656-.102-.861-.307a1.164 1.164 0 0 1-.308-.8Zm0-8.675c.007-.328.11-.594.308-.8.205-.211.492-.32.86-.328.37.007.657.117.862.328.212.212.315.479.308.8.007.315-.096.578-.308.79-.205.205-.492.31-.861.318-.37-.007-.656-.113-.861-.318-.199-.205-.301-.468-.308-.79ZM9.434 9.09a1.14 1.14 0 0 1 .317-.8c.206-.219.49-.328.851-.328.37 0 .66.106.872.318.219.212.332.482.338.81-.006.328-.116.595-.328.8-.205.198-.492.294-.861.287-.37.007-.66-.09-.872-.287-.205-.205-.31-.472-.317-.8Z" fill="#3486E7" style="fill-opacity:1"/></svg>