
<svg width="36" height="36" fill="none" xmlns="http://www.w3.org/2000/svg"><path d="M35.285 14.227H.5V36h34.785V14.227Z" fill="#fff" style="fill:#fff;fill-opacity:1"/><path d="M17.89 26.195.5 14.227V36h34.785V14.227L17.89 26.195Z" fill="#86A8FF" style="fill:color(display-p3 .525 .658 1);fill-opacity:1"/><path d="M.585 36 16.52 24.882a2.402 2.402 0 0 1 2.745 0L35.2 36H.585Z" fill="#547EE9" style="fill:color(display-p3 .3308 .4942 .9125);fill-opacity:1"/><path d="M.6 14.226 16.336 1.548c.908-.73 2.199-.73 3.107 0l15.743 12.678H.6Z" fill="#86A8FF" style="fill:color(display-p3 .5255 .6588 1);fill-opacity:1"/><path d="M.5 13.807a5 5 0 0 1 5-5h24.764a5 5 0 0 1 5 5v.675H.5v-.675Z" fill="#fff" style="fill:#fff;fill-opacity:1"/></svg>