
<svg width="36" height="36" fill="none" xmlns="http://www.w3.org/2000/svg"><g clip-path="url(#a)"><rect x=".5" y="1" width="28" height="34" rx="4" fill="#fff" style="fill:#fff;fill-opacity:1"/><path d="M5.5 9h18M5.5 15.125h18M5.5 21.25h18M5.5 27.375h6" stroke="#547EE9" stroke-opacity=".5" style="stroke:color(display-p3 .3308 .4942 .9125);stroke-opacity:.5" stroke-width="2" stroke-linecap="round"/><path d="M16.854 22.842 30.375 9.32a2 2 0 0 1 2.829 0l1.767 1.767a2 2 0 0 1 0 2.829L21.449 27.437l-4.596-4.595Z" fill="#547EE9" style="fill:color(display-p3 .3308 .4942 .9125);fill-opacity:1"/><path d="m16.087 28.204.766-5.361 4.595 4.595-5.361.766Z" fill="#E9EFFF" style="fill:color(display-p3 .9125 .9373 1);fill-opacity:1"/><path d="m16.087 28.204.383-2.681 2.298 2.298-2.68.383Z" fill="#fff" style="fill:#fff;fill-opacity:1"/><path d="m16.087 28.204.383-2.681 2.298 2.298-2.68.383Z" fill="#3C3653" style="fill:color(display-p3 .2338 .2099 .325);fill-opacity:1"/></g><defs><clipPath id="a"><path fill="#fff" style="fill:#fff;fill-opacity:1" d="M0 0h36v36H0z"/></clipPath></defs></svg>