
<svg width="36" height="36" fill="none" xmlns="http://www.w3.org/2000/svg"><path d="M4.465 8.824H25.48a2.463 2.463 0 0 1 2.464 2.457v22.26A2.463 2.463 0 0 1 25.481 36H4.465A2.463 2.463 0 0 1 2 33.542V11.276a2.463 2.463 0 0 1 2.465-2.458v.006Z" fill="#fff" style="fill:#fff;fill-opacity:1"/><path d="M18.485 11.466V6.335a3.677 3.677 0 0 0-3.676-3.675 3.677 3.677 0 0 0-3.675 3.675v5.13a1.332 1.332 0 1 1-2.665 0v-5.13c0-3.5 2.835-6.335 6.34-6.335 3.5 0 6.335 2.836 6.34 6.335v5.13a1.332 1.332 0 1 1-2.665 0Z" fill="#AABFF4" style="fill:color(display-p3 .6667 .749 .9569);fill-opacity:1"/><path d="M33.316 24.128a1 1 0 0 0-.507-1.683l-8.658-1.802a1 1 0 0 0-1.184 1.177l1.771 8.756a1 1 0 0 0 1.69.507l1.226-1.233a1 1 0 0 1 1.422.003l2.884 2.928a1 1 0 0 0 1.425 0l1.589-1.612a1 1 0 0 0 0-1.404l-2.92-2.958a1 1 0 0 1 .002-1.406l1.26-1.273Z" fill="#3F95FF" style="fill:color(display-p3 .2458 .5844 1);fill-opacity:1"/></svg>