
<svg width="114" height="18" fill="none" xmlns="http://www.w3.org/2000/svg"><path d="M3.788 1.528V.106h2.736v1.422h3.474V3.58H.296V1.528h3.492ZM3.23 6.55c0 .162.09.324.27.414.306.198.882.288 1.638.288.756 0 1.332-.09 1.638-.288.162-.09.27-.252.27-.414 0-.144-.108-.306-.27-.396-.306-.198-.882-.288-1.638-.288-.756 0-1.332.09-1.638.288a.458.458 0 0 0-.27.396Zm-2.556 0c0-.774.378-1.386.99-1.8.828-.558 2.07-.81 3.474-.81 1.404 0 2.628.252 3.474.81.612.414.99 1.026.99 1.8 0 .792-.378 1.386-.99 1.818-.558.36-1.26.594-2.088.72v.954h1.782c1.368 0 2.178-.18 2.736-.576V.592h2.736v5.112h2.304v2.322h-2.304v5.544h-2.736V11.5c-.576.486-1.548.684-3.312.684H.116v-2.142h3.69v-.954c-.846-.108-1.584-.342-2.142-.72-.612-.432-.99-1.026-.99-1.818Zm13.374 8.676v2.16H1.322v-4.392h2.754v2.232h9.972Zm8.55-12.15h-5.383V.772h8.1v1.476h2.718V.592h2.736v9.63h-2.736v-2.07H24.83V5.884h3.204V4.516H25.1c-.774 3.528-3.546 5.202-8.28 5.58V7.792c3.87-.396 5.76-1.89 5.778-4.716ZM17.952 13.93c0-1.152.576-1.98 1.476-2.556 1.26-.828 3.186-1.116 5.13-1.116 1.926 0 3.87.288 5.13 1.116.882.576 1.458 1.404 1.458 2.556 0 1.152-.576 1.98-1.458 2.574-1.26.828-3.204 1.098-5.13 1.098-1.944 0-3.87-.27-5.13-1.098-.9-.594-1.476-1.422-1.476-2.574Zm2.736 0c0 .378.198.612.54.828.702.432 1.962.558 3.33.558 1.35 0 2.628-.126 3.312-.558.36-.216.54-.45.54-.828 0-.36-.18-.612-.54-.828-.684-.414-1.962-.558-3.312-.558-1.368 0-2.628.144-3.33.558-.342.216-.54.468-.54.828ZM36.907.88v3.006h7.704V.88h2.736v10.242h-5.202V14.2h6.03v2.322H33.343V14.2h6.066v-3.078h-5.256V.88h2.754Zm0 7.92h7.704V6.208h-7.704V8.8Zm18.88-5.724h-5.453V.772h8.172V2.32c0 5.274-2.79 8.01-8.568 8.55V8.566c3.96-.486 5.814-2.394 5.85-5.49Zm8.1-2.484v11.664h-2.735V6.784H58.65V4.462h2.502V.592h2.736Zm.27 14.418v2.286H51.27v-5.922h2.736v3.636h10.152Zm11.43-6.516c0 3.078-.306 5.31-1.368 6.588-.684.864-1.764 1.278-3.042 1.278-1.26 0-2.322-.414-3.042-1.278-1.062-1.278-1.368-3.51-1.368-6.588 0-3.06.306-5.292 1.368-6.57.72-.882 1.782-1.314 3.042-1.314 1.278 0 2.358.432 3.042 1.314 1.062 1.278 1.368 3.51 1.368 6.57Zm-6.102 0c0 2.61.144 4.32.648 5.058.234.342.63.522 1.044.522.432 0 .81-.18 1.062-.522.504-.738.648-2.448.648-5.058 0-2.592-.144-4.302-.648-5.04a1.297 1.297 0 0 0-1.062-.54c-.414 0-.81.198-1.044.54-.504.738-.648 2.448-.648 5.04ZM77.693.592h2.736v16.614h-2.736V.592Zm5.975 3.294c0-.954.378-1.656 1.044-2.142C85.919.862 87.953.592 90.455.592c2.485 0 4.555.27 5.725 1.152.665.486 1.061 1.188 1.061 2.142 0 .936-.395 1.638-1.061 2.124-.379.288-.865.522-1.422.684v1.368h3.185v2.232H82.931V8.062h3.276v-1.35c-.576-.18-1.08-.396-1.494-.702-.666-.486-1.044-1.188-1.044-2.124Zm8.406 3.24c-.522.036-1.061.054-1.62.054-.54 0-1.061-.018-1.566-.036v.918h3.186v-.936Zm-5.688-3.24c0 .234.109.396.306.558.613.396 1.909.522 3.763.522 1.835 0 3.168-.126 3.743-.522.199-.162.306-.324.306-.558a.694.694 0 0 0-.306-.576c-.575-.414-1.907-.504-3.743-.504-1.855 0-3.15.09-3.763.504a.694.694 0 0 0-.305.576Zm-2.718 10.476c0-1.062.486-1.818 1.368-2.34 1.189-.684 3.043-.954 5.418-.954 2.359 0 4.23.27 5.419.954.881.522 1.367 1.278 1.367 2.34 0 1.08-.486 1.818-1.367 2.34-1.189.702-3.06.954-5.419.954-2.375 0-4.23-.252-5.417-.954-.883-.522-1.369-1.26-1.369-2.34Zm2.718 0c0 .288.145.504.433.648.593.342 1.781.45 3.635.45 1.837 0 3.025-.108 3.619-.45.288-.144.431-.36.431-.648 0-.27-.144-.504-.431-.666-.594-.324-1.782-.414-3.618-.414-1.855 0-3.043.09-3.636.414-.288.162-.433.396-.433.666Zm20.016-10.08V3.058h-6.192V.772h8.892v3.402c0 .702-.09 1.512-.198 2.07h-2.7c.126-.54.198-1.296.198-1.962Zm7.164-3.69V13.03h-2.736v-1.188h-3.384V9.754h3.384V.592h2.736Zm-10.908 8.406h-3.204V6.784h8.19c.954 0 1.764-.018 2.538-.216v2.124c-.756.234-1.638.306-2.646.306h-2.142v2.772h-2.736V8.998Zm11.178 6.138v2.25h-12.888v-5.112h2.736v2.862h10.152Z" fill="#fff" style="fill:#fff;fill-opacity:1"/></svg>