<svg width="20" height="20" fill="none" xmlns="http://www.w3.org/2000/svg"><path d="M2 11.431c0-1.201.968-2.18 2.157-2.18 1.19 0 2.158.979 2.158 2.18s-.969 2.18-2.158 2.18S2 12.632 2 11.43ZM4.265 13.947c0 2.221 1.798 4.038 3.996 4.038h.798c2.198 0 3.996-1.817 3.996-4.038V12.49M18 2.998v4.938c0 2.504-2.023 4.55-4.495 4.55h-.898c-2.472 0-4.495-2.048-4.495-4.55V2.998" stroke="#A1AECE" style="stroke:color(display-p3 .6332 .6822 .8083);stroke-opacity:1" stroke-width="1.5" stroke-linecap="round" stroke-linejoin="round"/><path d="M8.707 6.795h-.595V2h.595c1.31 0 2.373 1.073 2.373 2.398 0 1.325-1.062 2.397-2.373 2.397ZM18 6.795h-.595c-1.31 0-2.373-1.072-2.373-2.397C15.032 3.073 16.094 2 17.405 2H18v4.795Z" stroke="#A1AECE" style="stroke:color(display-p3 .6332 .6822 .8083);stroke-opacity:1" stroke-width="1.5" stroke-linecap="round" stroke-linejoin="round"/></svg>