<svg width="20" height="20" fill="none" xmlns="http://www.w3.org/2000/svg"><path d="M16.28 9.57c0-.53-.069-1.042-.188-1.535L18 6.612l-1.498-2.656-2.156.98A6.25 6.25 0 0 0 11.746 3.4L11.498 1H8.502l-.249 2.399a6.225 6.225 0 0 0-2.598 1.537l-2.157-.98L2 6.612l1.908 1.423a6.537 6.537 0 0 0-.189 1.535c0 .531.07 1.043.189 1.535L2 12.528l1.498 2.657 2.157-.979a6.25 6.25 0 0 0 2.598 1.538l.249 2.399h2.996l.249-2.4a6.226 6.226 0 0 0 2.598-1.537l2.157.979L18 12.528l-1.907-1.423a6.538 6.538 0 0 0 .188-1.535ZM10 12.595c-1.633 0-2.957-1.354-2.957-3.025 0-1.67 1.324-3.025 2.957-3.025 1.633 0 2.957 1.355 2.957 3.025 0 1.671-1.324 3.025-2.957 3.025Z" stroke="#A1AECE" style="stroke:color(display-p3 .6332 .6822 .8083);stroke-opacity:1" stroke-width="1.5" stroke-linecap="round" stroke-linejoin="round"/></svg>