<svg width="20" height="20" fill="none" xmlns="http://www.w3.org/2000/svg"><path d="M8.782 5.748h2.313M6.469 8.746h4.626m-4.626 2.997h4.626" stroke="#A1AECE" style="stroke:color(display-p3 .6332 .6822 .8083);stroke-opacity:1" stroke-width="1.2" stroke-linecap="round" stroke-linejoin="round"/><path d="M14.564 3.8c0-.75 0-1.125-.191-1.388a1 1 0 0 0-.222-.221C13.89 2 13.514 2 12.764 2H4.8c-.75 0-1.125 0-1.388.191a1 1 0 0 0-.221.221C3 2.675 3 3.05 3 3.8v9.89c0 .75 0 1.126.191 1.389.062.085.136.16.221.22.263.192.638.192 1.388.192h7.964c.75 0 1.125 0 1.387-.191a.999.999 0 0 0 .222-.221c.19-.263.19-.638.19-1.388V3.8Z" stroke="#A1AECE" style="stroke:color(display-p3 .6332 .6822 .8083);stroke-opacity:1" stroke-width="1.5" stroke-linecap="round" stroke-linejoin="round"/><path d="M5.41 15.973v.927a1 1 0 0 0 1 1h10.045a1 1 0 0 0 1-1V4.927a1 1 0 0 0-1-1h-1.891" stroke="#A1AECE" style="stroke:color(display-p3 .6332 .6822 .8083);stroke-opacity:1" stroke-width="1.5"/></svg>